# xmcd
#
# Track frame offsets:
#	150
#	32632
#	57026
#	75747
#	101241
#	136378
#	167944
#	221476
#	244347
#	309244
#
# Disc length: 4461 seconds
#
# Revision: 1
# Processed by: cddbd v1.5.1PL0 Copyright (c) Steve Scherf et al.
# Submitted via: EasyCDDAExtractor 7.0.6.1
#
DISCID=86116b0a
DTITLE=Diante do Trono - Quero me apaixonar
DYEAR=2003
DGENRE=Gospel
TTITLE0=Manacial remix
TTITLE1=Com intensidade
TTITLE2=Invoco o Senhor
TTITLE3=Lugares altos
TTITLE4=Quero me apaixonar
TTITLE5=Seja o centro
TTITLE6=Quero tocar-te
TTITLE7=Tu és o Cordeiro
TTITLE8=Eu nasci de novo
TTITLE9=História de amor
EXTD=
EXTT0=
EXTT1=
EXTT2=
EXTT3=
EXTT4=
EXTT5=
EXTT6=
EXTT7=
EXTT8=
EXTT9=
PLAYORDER=
